<svg aria-hidden="true" style="position:absolute;width:0;height:0;overflow:hidden" xmlns="http://www.w3.org/2000/svg"><defs><symbol id="icon-smartphone" viewBox="0 0 20 32"><path  d="M17.014 0H3.01A3.005 3.005 0 0 0 .009 3.001v26.008A3.005 3.005 0 0 0 3.01 32.01h14.004a3.005 3.005 0 0 0 3.001-3.001V3.001A3.005 3.005 0 0 0 17.014 0zM3.01 2.001h14.004a1 1 0 0 1 1 1v21.006H2.009V3.001a1 1 0 0 1 1-1zm14.004 28.008H3.01a1 1 0 0 1-1-1v-3.001h16.005v3.001a1 1 0 0 1-1 1z"/><path fill="#757575" style="fill:var(--color1, #757575)" d="M4.718 27.486a.89.89 0 0 1 .001 1.32l-.001.001a1.048 1.048 0 0 1-1.417 0l.001.001a.89.89 0 0 1-.001-1.32l.001-.001a1.048 1.048 0 0 1 1.417 0l-.001-.001z"/></symbol><symbol id="icon-envelope" viewBox="0 0 43 32"><path  d="M38.678.008H4.001A4.006 4.006 0 0 0 0 4.009v24.007a4.006 4.006 0 0 0 4.001 4.001h34.677a4.006 4.006 0 0 0 4.001-4.001V4.009A4.006 4.006 0 0 0 38.678.008zm0 2.667c.181 0 .355.037.512.104L21.339 18.25 3.488 2.779c.151-.065.327-.104.512-.104h34.677zm0 26.675H4.001a1.334 1.334 0 0 1-1.334-1.334V5.596l17.797 15.426a1.333 1.333 0 0 0 1.752-.001l-.002.001L40.011 5.596v22.42c0 .737-.597 1.334-1.334 1.334z"/></symbol></defs></svg>