<svg aria-hidden="true" style="position:absolute;width:0;height:0;overflow:hidden" xmlns="http://www.w3.org/2000/svg"><defs><symbol id="icon-instagram" viewBox="0 0 32 32"><path d="M31.986 9.413c-.074-1.702-.349-2.87-.743-3.884a7.862 7.862 0 0 0-1.851-2.839l-.001-.001a7.893 7.893 0 0 0-2.78-1.828l-.054-.018C25.537.449 24.375.175 22.673.1c-1.713-.082-2.257-.101-6.605-.101-4.346 0-4.891.019-6.599.094-1.7.074-2.87.349-3.882.743a7.844 7.844 0 0 0-2.84 1.851l-.001.001A7.888 7.888 0 0 0 .92 5.468l-.018.054C.507 6.542.233 7.704.158 9.406c-.082 1.713-.101 2.257-.101 6.605 0 4.346.019 4.891.094 6.599.075 1.702.351 2.87.744 3.884a7.938 7.938 0 0 0 1.85 2.839l.001.001a7.875 7.875 0 0 0 2.834 1.844c1.02.395 2.184.671 3.884.744 1.708.075 2.252.094 6.599.094 4.348 0 4.892-.019 6.599-.094 1.702-.074 2.87-.349 3.884-.743a8.242 8.242 0 0 0 4.667-4.63l.019-.055c.394-1.02.669-2.184.744-3.884.075-1.708.093-2.253.093-6.599s-.006-4.891-.08-6.599zm-2.881 13.074c-.07 1.564-.333 2.408-.551 2.971a5.342 5.342 0 0 1-3.006 3.026l-.036.013c-.56.219-1.412.482-2.97.551-1.689.075-2.195.094-6.468.094-4.271 0-4.785-.019-6.468-.094-1.564-.069-2.408-.331-2.971-.551a4.947 4.947 0 0 1-1.837-1.193l-.001-.001a4.982 4.982 0 0 1-1.184-1.804l-.011-.034c-.218-.564-.48-1.414-.549-2.971-.075-1.689-.094-2.196-.094-6.468 0-4.273.019-4.787.094-6.468.069-1.564.331-2.408.549-2.971a4.883 4.883 0 0 1 1.199-1.838l.002-.002A4.978 4.978 0 0 1 6.61 3.564l.034-.011c.56-.219 1.412-.48 2.97-.551 1.689-.074 2.196-.093 6.468-.093 4.278 0 4.785.019 6.468.093 1.564.069 2.408.331 2.971.551a4.926 4.926 0 0 1 1.838 1.194c.532.52.938 1.145 1.196 1.841.218.56.48 1.412.549 2.97.075 1.689.094 2.195.094 6.468 0 4.271-.019 4.771-.094 6.461z"/><path d="M16.069 7.787a8.227 8.227 0 0 0-8.224 8.225 8.226 8.226 0 0 0 16.451.009v-.009a8.228 8.228 0 0 0-8.225-8.226zm0 13.56a5.336 5.336 0 0 1 .001-10.672h.001a5.337 5.337 0 0 1 0 10.674zM26.54 7.462a1.92 1.92 0 1 1-3.842 0 1.92 1.92 0 1 1 3.842 0z"/></symbol><symbol id="icon-linkedin" viewBox="0 0 32 32"><path d="M32.011 32.019h.008V20.275c0-5.744-1.236-10.169-7.952-10.169-3.229 0-5.395 1.771-6.28 3.452h-.093v-2.915h-6.369v21.376h6.631V21.435c0-2.787.528-5.483 3.98-5.483 3.4 0 3.452 3.181 3.452 5.661v10.408h6.623zM.528 10.641h6.639v21.377H.528V10.641zM3.845 0A3.845 3.845 0 0 0 0 3.845c0 2.121 1.723 3.881 3.845 3.881 2.121 0 3.844-1.758 3.844-3.881S5.968.001 3.845 0z"/></symbol><symbol id="icon-facebook" viewBox="0 0 32 32"><path d="M21.34 5.315h2.925V.224A36.533 36.533 0 0 0 20.155 0h-.157.008c-4.215 0-7.103 2.651-7.103 7.524v4.483H8.254v5.691h4.649v14.32h5.703V17.699h4.462l.709-5.691h-5.173V8.084c0-1.644.443-2.77 2.736-2.77z"/></symbol><symbol id="icon-twitter" viewBox="0 0 32 32"><path d="M32.019 6.082a13.295 13.295 0 0 1-3.715 1.029l-.068.007a6.56 6.56 0 0 0 2.875-3.582l.013-.046a12.879 12.879 0 0 1-4.078 1.574l-.084.014A6.562 6.562 0 0 0 15.61 9.563v.004c0 .52.043 1.021.152 1.497-5.458-.266-10.286-2.882-13.529-6.865a6.541 6.541 0 0 0-.903 3.314v.001a6.574 6.574 0 0 0 2.915 5.454 6.45 6.45 0 0 1-2.996-.824l.033.017v.072a6.597 6.597 0 0 0 5.216 6.444l.043.008a6.41 6.41 0 0 1-1.663.215h-.061.003c-.419 0-.844-.024-1.242-.112.85 2.6 3.263 4.511 6.133 4.572a13.101 13.101 0 0 1-8.127 2.802h-.013.001-.062c-.532 0-1.056-.034-1.569-.099l.061.006c2.828 1.847 6.291 2.946 10.01 2.946h.063-.003c12.079 0 18.683-10.006 18.683-18.68 0-.288-.01-.57-.024-.848a13.203 13.203 0 0 0 3.26-3.357l.03-.047z"/></symbol></defs></svg>